<?xml version="1.0" encoding="UTF-8"?>
<svg version="1.1" xmlns="http://www.w3.org/2000/svg" width="1254" height="1254">
<path d="M0 0 C413.82 0 827.64 0 1254 0 C1254 413.82 1254 827.64 1254 1254 C840.18 1254 426.36 1254 0 1254 C0 840.18 0 426.36 0 0 Z " fill="#FDFDFD" transform="translate(0,0)"/>
<path d="M0 0 C0.78660336 -0.00326884 1.57320672 -0.00653768 2.38364655 -0.00990558 C5.01662715 -0.01718188 7.64905114 -0.00303298 10.28199768 0.01104736 C12.17132665 0.01025637 14.06065545 0.00815874 15.94998169 0.00485229 C21.08277084 -0.00028461 26.21535968 0.01326373 31.34811664 0.0303793 C36.72809528 0.04542783 42.10807145 0.04424174 47.48806763 0.04504395 C56.53269357 0.0487382 65.57724372 0.06370634 74.62184143 0.08624268 C86.19916719 0.11503267 97.77643165 0.12545924 109.35378933 0.12992477 C119.33402981 0.13392116 129.31425719 0.14642638 139.29448819 0.16027164 C142.4871723 0.16435251 145.67985595 0.16728751 148.87254143 0.17006683 C153.91305372 0.17500075 158.95352995 0.18527178 163.99402428 0.19950485 C165.83452274 0.20398628 167.67502602 0.20685652 169.51552963 0.20791245 C226.35847394 0.24780386 279.73364309 18.11099948 320.43312073 58.62921143 C324.33772494 62.63393369 327.78687378 66.88944102 331.12794495 71.36749268 C332.26876526 72.80802002 332.26876526 72.80802002 333.43263245 74.27764893 C357.25039886 105.11053315 368.67055783 145.07019867 368.37794495 183.67999268 C368.37517548 184.40083038 368.37240601 185.12166809 368.36955261 185.86434937 C368.32034718 196.81112084 367.85360733 207.54712313 366.12794495 218.36749268 C365.89609611 219.9299811 365.66432833 221.49248156 365.43263245 223.05499268 C359.61145175 261.08540861 342.66626626 298.34056146 316.12794495 326.36749268 C314.91330189 327.75783881 313.70464935 329.15344829 312.50294495 330.55499268 C305.67727497 338.32480294 298.17002463 344.74115054 289.94239807 350.98419189 C288.27803788 352.25306499 286.63170916 353.54549921 284.98731995 354.84014893 C270.17911383 366.05572375 252.86800765 374.89341618 235.12794495 380.36749268 C233.68599145 380.89718988 232.24778398 381.43732251 230.81544495 381.99249268 C229.59856995 382.44624268 228.38169495 382.89999268 227.12794495 383.36749268 C226.14374573 383.75227783 226.14374573 383.75227783 225.1396637 384.14483643 C219.4190925 386.24691103 213.74428845 387.11947964 207.7099762 387.89093018 C203.32625344 388.47415174 198.99487691 389.27091248 194.65138245 390.09796143 C192.14655996 390.36550439 190.50014042 390.15265596 188.12794495 389.36749268 C189.30356995 388.87249268 190.47919495 388.37749268 191.69044495 387.86749268 C216.79163995 376.54038109 232.2567818 360.7317182 242.1612215 334.64612389 C245.19690183 325.77880085 245.71734945 317.46759713 245.69313049 308.20196533 C245.70348953 306.62161151 245.71548544 305.04126771 245.72897339 303.4609375 C245.75978119 299.2040198 245.7653031 294.94744215 245.76404166 290.69042635 C245.76487858 287.11303816 245.7771685 283.53572128 245.78899127 279.95835531 C245.81628503 271.49947313 245.82171864 263.04076505 245.81422424 254.58184814 C245.80700577 245.91743088 245.84029774 237.2538317 245.89328164 228.58959162 C245.93738695 221.10108939 245.95374939 213.61284812 245.94924575 206.12421834 C245.94694776 201.67390532 245.95475298 197.22425244 245.99031639 192.77406693 C246.16591197 169.00995637 245.76039707 145.42959684 231.12794495 125.36749268 C230.46149963 124.4419458 229.79505432 123.51639893 229.1084137 122.56280518 C218.41314236 108.64931706 203.94761947 98.39941746 187.12794495 93.36749268 C186.15599182 93.06843018 185.1840387 92.76936768 184.18263245 92.46124268 C162.7713596 86.66571018 138.2201166 90.4421994 119.00294495 100.99249268 C111.80001793 105.14891605 105.95265172 110.48174855 100.12794495 116.36749268 C99.4731012 117.00042236 98.81825745 117.63335205 98.14356995 118.28546143 C79.84746694 137.29494459 77.19297354 162.60488412 77.48664975 187.65820646 C77.52117969 191.15406822 77.52107149 194.64995971 77.52539062 198.14596558 C77.53726475 204.02097832 77.57078001 209.89551383 77.62037659 215.77032471 C77.68936704 223.94543079 77.7191426 232.12032083 77.74077713 240.29567027 C77.75932147 246.76495263 77.78823769 253.23419757 77.8193512 259.70343018 C77.82252263 260.37336109 77.82569407 261.043292 77.82896161 261.73352385 C77.90295271 276.72352402 78.10118236 291.70671569 78.54566956 306.69024658 C78.59489358 308.53986024 78.59489358 308.53986024 78.64511204 310.42683983 C79.3652999 332.28796589 86.67776746 350.5681819 102.63478088 365.80645752 C109.50043275 372.07749885 117.21004186 378.39485831 126.12794495 381.36749268 C126.12794495 382.02749268 126.12794495 382.68749268 126.12794495 383.36749268 C127.28294495 383.63561768 128.43794495 383.90374268 129.62794495 384.17999268 C133.24453312 385.07777249 136.63084189 386.28231549 140.09669495 387.63702393 C143.38074235 388.81801789 146.7304713 389.57879344 150.12794495 390.36749268 C150.12794495 391.02749268 150.12794495 391.68749268 150.12794495 392.36749268 C148.38771057 392.62272705 148.38771057 392.62272705 146.61231995 392.88311768 C127.50075548 395.67454237 127.50075548 395.67454237 111.12794495 405.36749268 C108.38188327 409.19724209 107.75357139 411.82520771 107.75613403 416.50907898 C107.74937653 417.74416199 107.74261902 418.979245 107.73565674 420.25175476 C107.74320933 421.61251969 107.75101504 422.97328323 107.75904846 424.33404541 C107.75657937 425.77330817 107.75273985 427.21256913 107.74763489 428.65182495 C107.73930636 431.74679497 107.74009634 434.84158093 107.7478199 437.93655205 C107.75941453 442.8324063 107.74723069 447.72802436 107.73120117 452.62385559 C107.69502725 464.78366682 107.68877689 476.94347237 107.69129944 489.10333252 C107.69301096 498.55512709 107.68588208 508.00672847 107.65132087 517.45846897 C107.63453562 522.32332652 107.63631371 527.18771272 107.6521436 532.05256832 C107.65794557 535.08156696 107.64719163 538.11034269 107.63189697 541.1393013 C107.62817467 542.54132163 107.63126756 543.94337957 107.6417675 545.34536552 C107.73343509 558.46145218 107.73343509 558.46145218 103.12794495 563.36749268 C96.93005279 569.0886239 91.60798233 569.66613692 83.50758362 569.65802002 C82.06272835 569.66809586 82.06272835 569.66809586 80.58868408 569.67837524 C77.40770798 569.69735633 74.22694289 569.7012796 71.0459137 569.70343018 C68.83019932 569.70985833 66.61448579 569.7165867 64.39877319 569.72360229 C59.75435926 569.73557556 55.11001971 569.73928309 50.46559143 569.73809814 C44.5238896 569.73789503 38.58266645 569.76518998 32.641078 569.79964256 C28.06418685 569.82191694 23.48741076 569.8259355 18.91047096 569.82487869 C16.720481 569.82723411 14.53048783 569.83605423 12.34055138 569.85154343 C9.27219331 569.87121245 6.20486571 569.86536117 3.13648987 569.85333252 C2.23803345 569.86457153 1.33957703 569.87581055 0.41389465 569.88739014 C-5.30327248 569.83064389 -10.33524799 569.07480877 -14.87205505 565.36749268 C-19.62279363 559.82117237 -20.60043692 556.18860478 -20.50684738 548.98580265 C-20.51471378 548.05658211 -20.52258018 547.12736156 -20.53068495 546.16998282 C-20.55096644 543.05069557 -20.53560541 539.93261027 -20.52043152 536.81330872 C-20.52762379 534.55669535 -20.53698943 532.30008804 -20.5483439 530.04349178 C-20.57313982 523.8379778 -20.56663455 517.63282852 -20.55499649 511.42729032 C-20.54855086 505.42363458 -20.5655081 499.42007335 -20.58166436 493.41644716 C-20.61772408 479.62045387 -20.62001453 465.82457952 -20.61203822 452.02855105 C-20.60608174 441.37612123 -20.60929756 430.72372918 -20.61901093 420.07130241 C-20.62037019 418.54113637 -20.62172737 417.01097032 -20.62308247 415.48080428 C-20.62513491 413.17502642 -20.62719345 410.86924856 -20.62927407 408.56347073 C-20.64841008 387.12472413 -20.65746812 365.68599194 -20.64539719 344.24723911 C-20.64494364 343.43897841 -20.64449009 342.63071771 -20.64402279 341.79796426 C-20.64028275 335.23418002 -20.6362828 328.67039594 -20.63226132 322.10661187 C-20.61679989 296.50103258 -20.63309096 270.89564831 -20.67478943 245.2901001 C-20.72156572 216.52555198 -20.74515648 187.76112271 -20.73402619 158.99653476 C-20.73291477 155.93018943 -20.73187884 152.86384408 -20.73088837 149.7974987 C-20.73062783 149.04248028 -20.73036729 148.28746185 -20.73009885 147.50956408 C-20.72662834 136.10684434 -20.74126374 124.70423892 -20.76499176 113.3015461 C-20.79193372 100.33562167 -20.79438405 87.3699583 -20.76413068 74.40403552 C-20.74934839 67.78631902 -20.74658777 61.16899699 -20.77378464 54.55127907 C-20.79837228 48.49561109 -20.79077357 42.44087693 -20.75728372 36.3852595 C-20.75084152 34.19220681 -20.75627008 31.9990812 -20.77463123 29.80609591 C-20.79781572 26.82794002 -20.77799465 23.85304225 -20.74735641 20.87502384 C-20.76431627 20.02046393 -20.78127613 19.16590401 -20.79874992 18.28544834 C-20.67070063 12.26192601 -18.77634041 9.27950953 -14.61135076 4.97631304 C-9.92183946 0.63859104 -6.26439183 -0.06906582 0 0 Z " fill="#0169EA" transform="translate(277.87205505371094,344.63250732421875)"/>
<path d="M0 0 C10.22854503 9.12576421 14.78383302 21.67847499 19.88671875 34.01953125 C20.68087235 35.91031186 21.47637542 37.80052621 22.27319336 39.69018555 C23.84133647 43.41471319 25.4020259 47.14220169 26.95507812 50.87304688 C29.21427454 56.29945415 31.50436118 61.71224652 33.80126953 67.12280273 C35.09718546 70.17637868 36.38710285 73.23242638 37.67578125 76.2890625 C40.4472393 82.85238932 43.257897 89.39884822 46.08422852 95.9387207 C49.38362105 103.59929732 52.48458881 111.3246102 55.38671875 119.14453125 C57.4946202 124.65352523 59.88629748 129.96578409 62.41064453 135.29077148 C66.35030484 143.61247375 70.08450332 152.0143217 73.13671875 160.70703125 C74.71225165 165.17213072 76.67792696 169.28724864 78.8515625 173.48828125 C80.4271149 176.66958834 81.7200434 179.92695857 82.984375 183.2421875 C84.24401071 186.37998972 85.62142503 189.45548798 87.00170898 192.54174805 C88.73829386 196.45252295 90.41054848 200.38978593 92.07421875 204.33203125 C92.42597168 205.16420166 92.77772461 205.99637207 93.14013672 206.85375977 C94.94888406 211.16476162 96.66823315 215.47525768 98.19921875 219.89453125 C99.94504287 224.89146783 102.28828203 229.49208965 104.703125 234.1953125 C106.08958249 236.98797759 107.19679891 239.76042848 108.23046875 242.6953125 C110.28454815 248.20138646 112.74011898 253.56550393 115.07421875 258.95703125 C117.47058333 264.52275304 119.82297619 270.10613617 122.1640625 275.6953125 C122.74275841 277.07652534 122.74275841 277.07652534 123.33314514 278.48564148 C124.14600603 280.4261506 124.95870139 282.36672906 125.77124023 284.30737305 C127.00360943 287.25016687 128.23713978 290.19247221 129.47070312 293.13476562 C130.26439473 295.02991784 131.05801677 296.9250992 131.8515625 298.8203125 C132.39707008 300.12081291 132.39707008 300.12081291 132.95359802 301.44758606 C134.70457746 305.6330019 136.42927354 309.82650743 138.10791016 314.04150391 C139.93626341 318.63236484 141.83176899 323.19157641 143.7578125 327.7421875 C144.27014687 328.95588768 144.27014687 328.95588768 144.79283142 330.19410706 C145.8856324 332.78217007 146.97981363 335.36964622 148.07421875 337.95703125 C148.80228383 339.67950879 149.53031107 341.40200232 150.25830078 343.12451172 C151.76185322 346.68159311 153.26575165 350.23852803 154.76977539 353.79541016 C162.34023992 371.70166854 169.87116966 389.62344998 177.3367157 407.57368469 C177.63809952 408.29831406 177.93948334 409.02294342 178.25 409.76953125 C178.55279373 410.49758469 178.85558746 411.22563812 179.16755676 411.97575378 C183.20642498 421.68342372 187.26464169 431.383007 191.32421875 441.08203125 C191.90462921 442.46882584 191.90462921 442.46882584 192.49676514 443.88363647 C197.3113081 455.38490404 202.14678599 466.87678007 207.01782227 478.35424805 C211.63157696 489.24157844 216.17527293 500.15823953 220.70605469 511.08032227 C223.36785883 517.49295534 226.0316834 523.90169653 228.80859375 530.265625 C229.19055908 531.14613525 229.57252441 532.02664551 229.96606445 532.93383789 C230.63231808 534.46188116 231.30705694 535.98627258 231.99291992 537.50561523 C233.71588656 541.46838952 234.83965508 544.64922678 234.07421875 548.95703125 C232.05508912 551.74888646 230.43422033 553.65453222 226.97346878 554.42429161 C224.32795075 554.6163853 221.723287 554.64391012 219.07080078 554.61987305 C217.56501465 554.63542488 217.56501465 554.63542488 216.02880859 554.65129089 C212.71279933 554.67837818 209.39811124 554.66869395 206.08203125 554.65625 C203.77423738 554.66215863 201.46644657 554.66940523 199.15866089 554.67793274 C194.32159458 554.68981707 189.48498828 554.68309936 184.64794922 554.66381836 C178.45473838 554.64095206 172.26290137 554.66768571 166.06982613 554.70888042 C161.30332137 554.73448144 156.53714416 554.73187175 151.77059555 554.72098732 C149.4876773 554.71950193 147.20473379 554.72717556 144.92187881 554.7442379 C141.72588629 554.76424417 138.53230781 554.74578896 135.33642578 554.7175293 C134.39697113 554.73124573 133.45751648 554.74496216 132.48959351 554.75909424 C126.71961575 554.65734317 123.60848643 553.56320834 119.40109062 549.56475544 C117.2810683 546.99599862 116.38863463 544.37666346 115.44921875 541.20703125 C113.74878085 535.89316281 111.77185762 531.11605898 109.1953125 526.1796875 C107.52570319 522.86955614 106.29332544 519.45309381 105.07421875 515.95703125 C102.78119287 509.40838965 100.28270285 503.06900003 97.36328125 496.7734375 C94.27856352 490.03379665 91.48246056 483.19459792 89.01171875 476.20703125 C87.88578987 473.04542295 86.69178154 470.0553113 85.13671875 467.08203125 C82.85170986 462.69872625 81.16461423 458.12846973 79.421875 453.5078125 C78.03337178 449.84940837 76.59553904 446.21276779 75.13671875 442.58203125 C74.88623779 441.95828613 74.63575684 441.33454102 74.37768555 440.69189453 C73.86687706 439.4203387 73.35588989 438.14885463 72.84472656 436.87744141 C72.07171385 434.95078804 71.30277762 433.02255719 70.53515625 431.09375 C70.27984131 430.4529248 70.02452637 429.81209961 69.76147461 429.15185547 C69.06195723 427.39565913 68.36298862 425.63924423 67.6640625 423.8828125 C65.01539679 417.29881112 62.24879874 410.76279033 59.50854492 404.21655273 C52.83261689 388.26800211 46.19103732 372.3087588 39.73126221 356.27124023 C33.51478999 340.83902888 27.11273877 325.49267047 20.61834717 310.17544556 C14.48872488 295.71574846 8.43358839 281.22745265 2.44921875 266.70703125 C1.86160263 265.2813533 1.86160263 265.2813533 1.26211548 263.82687378 C-0.30622842 260.02116026 -1.87427134 256.215323 -3.4417572 252.40925598 C-7.24808105 243.16890434 -11.07190787 233.93584318 -14.90060425 224.70474243 C-15.97010126 222.12586859 -17.03893338 219.54671999 -18.10766602 216.9675293 C-21.12613813 209.68568961 -24.15121994 202.40688367 -27.20703125 195.140625 C-27.92427368 193.43205322 -27.92427368 193.43205322 -28.65600586 191.68896484 C-29.5130084 189.65018767 -30.37295895 187.61264586 -31.23657227 185.57666016 C-31.78075806 184.28187744 -31.78075806 184.28187744 -32.3359375 182.9609375 C-32.64668213 182.22689697 -32.95742676 181.49285645 -33.27758789 180.73657227 C-33.92578125 178.95703125 -33.92578125 178.95703125 -33.92578125 176.95703125 C-34.58578125 176.95703125 -35.24578125 176.95703125 -35.92578125 176.95703125 C-36.29703125 178.15328125 -36.66828125 179.34953125 -37.05078125 180.58203125 C-38.83039324 185.93773557 -41.06259655 191.06897014 -43.328125 196.234375 C-44.52352459 198.98119316 -45.64752493 201.75011664 -46.75024414 204.53540039 C-48.87546125 209.86199572 -51.09221584 215.14653657 -53.33203125 220.42578125 C-53.9418988 221.86721497 -53.9418988 221.86721497 -54.56408691 223.33776855 C-56.28330293 227.40108504 -58.00478889 231.46343868 -59.72607422 235.52587891 C-60.99135346 238.51301109 -62.25546475 241.50063571 -63.51953125 244.48828125 C-63.9019397 245.38961792 -64.28434814 246.29095459 -64.67834473 247.21960449 C-66.85394222 252.36203434 -68.96381028 257.52585428 -71.02700806 262.71435547 C-72.15847186 265.5376556 -73.3440906 268.33531185 -74.546875 271.12890625 C-78.9094115 281.31736661 -83.23677035 291.43720402 -86.81640625 301.9296875 C-88.45184259 306.39258595 -90.4849417 310.64513889 -92.51953125 314.9375 C-94.13020166 318.39596729 -95.55163162 321.90005503 -96.9375 325.453125 C-98.01477239 328.18249891 -99.15546356 330.88053587 -100.30078125 333.58203125 C-102.59860201 339.05437977 -104.68902809 344.58941482 -106.69482422 350.17431641 C-107.88441739 353.42609122 -109.17425844 356.52882673 -110.765625 359.60546875 C-113.70760354 365.3456423 -116.01974055 371.35298734 -118.42578125 377.33203125 C-118.89886719 378.49992187 -119.37195313 379.6678125 -119.859375 380.87109375 C-121.85966428 385.8136368 -123.84800903 390.76033737 -125.80859375 395.71875 C-128.51938376 402.50533776 -131.40955657 409.21756193 -134.2628479 415.94506836 C-139.89186589 429.22922643 -145.41922017 442.54569992 -150.73828125 455.95703125 C-157.03486588 471.83107795 -163.5305917 487.61924629 -170.07568359 503.39233398 C-173.57011361 511.81651197 -177.06047565 520.24044422 -180.44140625 528.7109375 C-180.69916336 529.35441132 -180.95692047 529.99788513 -181.2224884 530.66085815 C-182.3685461 533.52259841 -183.50691403 536.38682356 -184.62963867 539.2578125 C-188.25401422 548.3305016 -188.25401422 548.3305016 -191.92578125 551.95703125 C-194.63897992 552.86143081 -196.20740297 553.0842349 -198.99354553 553.09074402 C-199.8193663 553.095009 -200.64518707 553.09927399 -201.49603271 553.10366821 C-202.39847717 553.10321503 -203.30092163 553.10276184 -204.23071289 553.10229492 C-205.1837883 553.10565353 -206.13686371 553.10901215 -207.11882019 553.11247253 C-210.27453915 553.12198507 -213.43020509 553.12392559 -216.5859375 553.125 C-218.77404299 553.12821161 -220.96214826 553.13157561 -223.1502533 553.13508606 C-227.7376251 553.14107755 -232.32497807 553.14292586 -236.91235352 553.14233398 C-242.80299021 553.14223219 -248.69350684 553.15590234 -254.58411503 553.17310619 C-259.10241761 553.18419836 -263.62069086 553.18625408 -268.13900566 553.18572426 C-270.31161349 553.1869079 -272.48422199 553.191351 -274.65681648 553.19905663 C-277.68804597 553.20880341 -280.71901082 553.20599994 -283.75024414 553.19995117 C-284.65471283 553.20557068 -285.55918152 553.21119019 -286.49105835 553.21697998 C-292.69746395 553.18534855 -292.69746395 553.18534855 -294.92578125 550.95703125 C-296.04394268 542.71059071 -292.95309952 536.16643326 -289.72070312 528.77783203 C-288.6072224 526.22735929 -287.54981709 523.65448643 -286.48828125 521.08203125 C-286.08738281 520.12554688 -285.68648437 519.1690625 -285.2734375 518.18359375 C-283.36393256 513.61185148 -281.48193495 509.02888883 -279.59985352 504.44580078 C-275.91878322 495.49044189 -272.19025491 486.55638756 -268.38671875 477.65234375 C-260.23356934 458.56296248 -252.19482501 439.43104592 -244.29101562 420.23703003 C-238.5054867 406.18727872 -232.6784833 392.15597628 -226.80078125 378.14453125 C-220.97771169 364.26157091 -215.18373268 350.36712811 -209.42578125 336.45703125 C-198.37495941 309.76559142 -187.24916805 283.10485884 -175.96191406 256.51245117 C-172.52122197 248.39452756 -169.1324165 240.25557289 -165.74899292 232.11367798 C-158.21524351 213.98549496 -150.55529124 195.91263041 -142.86129761 177.85195923 C-139.78977468 170.64107018 -136.72959888 163.42543666 -133.67578125 156.20703125 C-133.04978027 154.72855713 -133.04978027 154.72855713 -132.41113281 153.22021484 C-130.42600078 148.52652755 -128.45452085 143.82761408 -126.5 139.12109375 C-123.71163453 132.42035374 -120.85297629 125.75042509 -117.98828125 119.08203125 C-117.48876953 117.91800781 -116.98925781 116.75398438 -116.47460938 115.5546875 C-112.3905513 106.03751474 -112.3905513 106.03751474 -110.38623047 101.37792969 C-108.11091421 96.0821984 -105.84629435 90.78380054 -103.64453125 85.45703125 C-99.27012459 74.91932319 -94.68018252 64.47158161 -90.14599609 54.00195312 C-88.89485385 51.11226155 -87.64444053 48.22225634 -86.39453125 45.33203125 C-85.79665802 43.95004044 -85.79665802 43.95004044 -85.18670654 42.54013062 C-83.09947289 37.70653401 -81.04249268 32.86339372 -79.03515625 27.99609375 C-72.47323052 12.15324365 -63.77266381 -1.15206581 -47.4375 -8.1015625 C-30.24021838 -14.14228831 -14.70685303 -10.26927121 0 0 Z " fill="#0169EA" transform="translate(831.92578125,361.04296875)"/>
<path d="M0 0 C1.31677734 0.5259375 1.31677734 0.5259375 2.66015625 1.0625 C15.89344358 6.95305139 27.50031311 19.66167893 33 33 C35.92592578 42.1264622 36.4644898 50.84471444 36.49584961 60.36865234 C36.51145319 61.87479399 36.52827335 63.38092344 36.54620361 64.88703918 C36.59053832 68.94289329 36.61650983 72.99866174 36.63783717 77.05469465 C36.65733264 80.45644473 36.68572862 83.85809845 36.71397978 87.25978529 C36.78044867 95.29292784 36.83169172 103.32606804 36.87329102 111.359375 C36.9162914 119.6120557 36.98493996 127.86424074 37.06628221 136.11662519 C37.13553088 143.23457553 37.18872773 150.35252581 37.22933203 157.47069705 C37.25365372 161.70767284 37.28378152 165.94438977 37.32942009 170.18119431 C37.37167295 174.1687767 37.39366121 178.15599458 37.40090942 182.14378929 C37.40677421 183.59571679 37.4194054 185.04763771 37.43982124 186.49943352 C37.65108202 202.16289049 34.03443311 214.23133454 25 227 C24.47792969 227.75023437 23.95585937 228.50046875 23.41796875 229.2734375 C15.0831951 239.95038805 1.19383238 246.80004229 -12 249 C-30.03611596 251.0352333 -45.59448442 247.02226717 -60 236 C-72.32942087 225.68578908 -79.72465777 211.82105466 -82 196 C-82.28354494 191.16211797 -82.2844301 186.32958213 -82.2746582 181.48510742 C-82.27901425 180.04661293 -82.28420035 178.60812076 -82.29014587 177.16963196 C-82.30345239 173.28928322 -82.30412383 169.40903238 -82.30158257 165.5286653 C-82.30050698 162.27608638 -82.30541128 159.02352679 -82.310188 155.77095205 C-82.32125473 148.08971807 -82.32173686 140.408533 -82.31567383 132.72729492 C-82.30963853 124.83382993 -82.32194025 116.94054339 -82.3432439 109.04710883 C-82.36092573 102.24250258 -82.36685085 95.43795279 -82.36360615 88.63332444 C-82.36180332 84.58144509 -82.36432842 80.52969301 -82.37832069 76.4778347 C-82.39100189 72.66342323 -82.38885906 68.84928749 -82.37590981 65.03487968 C-82.37356652 63.64546867 -82.37619666 62.25603761 -82.38453293 60.86664963 C-82.49053508 41.80551182 -77.52506088 25.83622026 -64 12 C-46.07100683 -3.74910192 -22.45870333 -9.46941167 0 0 Z " fill="#036AEA" transform="translate(462,463)"/>
<path d="M0 0 C0.89820969 -0.01929062 1.79641937 -0.03858124 2.72184753 -0.05845642 C6.84154254 -0.11624329 10.96106216 -0.16549875 15.08105469 -0.19628906 C17.25081315 -0.21784886 19.42048511 -0.25192749 21.58984375 -0.29882812 C24.72215526 -0.36593032 27.85266614 -0.39330754 30.9855957 -0.41235352 C32.43128181 -0.4540995 32.43128181 -0.4540995 33.90617371 -0.49668884 C39.89644422 -0.47850441 43.08220087 0.50644934 47.40779114 4.72276306 C49.78272186 7.53796151 49.78376238 9.52025893 49.77490234 13.11743164 C49.77478905 14.64879257 49.77478905 14.64879257 49.77467346 16.21109009 C49.76951218 17.31633026 49.76435089 18.42157043 49.7590332 19.56030273 C49.75761826 20.68947113 49.75620331 21.81863953 49.75474548 22.98202515 C49.74913439 26.59929012 49.73657998 30.21649388 49.72387695 33.83374023 C49.71886338 36.28165601 49.71430023 38.72957275 49.71020508 41.17749023 C49.69916135 47.18792789 49.68241239 53.19832969 49.66137695 59.20874023 C50.21181671 59.2020784 50.76225647 59.19541656 51.32937622 59.18855286 C57.07214502 59.12204502 62.81480391 59.07687569 68.55786133 59.04394531 C70.69950812 59.02888382 72.84112419 59.00843052 74.98266602 58.98242188 C78.06575107 58.94592296 81.14842733 58.92898721 84.23168945 58.91577148 C85.18504181 58.90028763 86.13839417 58.88480377 87.12063599 58.86885071 C93.72727187 58.86718824 97.87631444 59.78565424 102.99438477 64.23852539 C105.47525871 68.65889921 105.31057246 72.73750761 105.33325195 77.73217773 C105.35322235 79.26148422 105.35322235 79.26148422 105.37359619 80.82168579 C105.39381475 82.97504477 105.40323129 85.12852862 105.40258789 87.28198242 C105.41133232 90.56697271 105.48396833 93.84657659 105.55981445 97.13061523 C105.5715528 99.22695109 105.57949025 101.32331239 105.58325195 103.41967773 C105.61199402 104.39593109 105.64073608 105.37218445 105.67034912 106.37802124 C105.60194842 111.51540656 104.98137809 114.61802389 101.29516602 118.34033203 C96.27773478 122.08542096 91.67662095 122.11485916 85.59887695 121.89233398 C84.56698242 121.88242935 83.53508789 121.87252472 82.47192383 121.86231995 C79.20024967 121.82336775 75.93202389 121.7355798 72.66137695 121.64624023 C70.43356108 121.61110169 68.20569222 121.57916716 65.9777832 121.55053711 C60.53781947 121.47367008 55.09984459 121.35677697 49.66137695 121.20874023 C49.6702594 121.84909714 49.67914185 122.48945404 49.68829346 123.1492157 C49.77681366 129.81634593 49.83713089 136.48330912 49.88110352 143.15087891 C49.90121401 145.63890362 49.92850622 148.12688109 49.96313477 150.61474609 C50.01167549 154.19176899 50.0343519 157.76816674 50.05200195 161.34545898 C50.07264709 162.45708908 50.09329224 163.56871918 50.11456299 164.71403503 C50.11678428 172.36553564 50.11678428 172.36553564 48.01196289 176.26269531 C42.10177917 181.1557234 37.2421885 181.6574295 29.8449707 181.60717773 C28.44384789 181.611483 28.44384789 181.611483 27.01441956 181.61587524 C25.04687898 181.61791002 23.0793179 181.61242129 21.11181641 181.59985352 C18.10508958 181.58377346 15.0997032 181.59973154 12.09301758 181.61889648 C10.176999 181.6169143 8.26098125 181.61307115 6.3449707 181.60717773 C5.44902695 181.61325043 4.55308319 181.61932312 3.62998962 181.62557983 C-2.67270376 181.55472278 -5.78391575 180.38154987 -10.62670898 176.26269531 C-13.32130899 171.45568569 -12.82979835 166.75955351 -12.72924805 161.34545898 C-12.72358826 160.19833939 -12.71792847 159.05121979 -12.71209717 157.86933899 C-12.68973502 154.21121211 -12.63953631 150.5540703 -12.58862305 146.89624023 C-12.56855796 144.41383252 -12.55030721 141.93140943 -12.53393555 139.44897461 C-12.48987064 133.36856128 -12.42295899 127.28872114 -12.33862305 121.20874023 C-13.20186691 121.2220639 -13.20186691 121.2220639 -14.08255005 121.23565674 C-20.08479863 121.32430925 -26.08686053 121.3845486 -32.08959961 121.4284668 C-34.32828326 121.44855339 -36.56691463 121.47582804 -38.80541992 121.51049805 C-42.02755654 121.55914487 -45.24899806 121.58173898 -48.47143555 121.59936523 C-49.46853546 121.62001038 -50.46563538 121.64065552 -51.49295044 121.66192627 C-57.24616608 121.66377438 -60.94551522 121.32562189 -65.33862305 117.20874023 C-68.81988339 112.2119887 -68.79205492 107.51805302 -68.7722168 101.64624023 C-68.77745865 100.73672607 -68.7827005 99.82721191 -68.7881012 98.89013672 C-68.79450308 96.97388731 -68.79320823 95.0575985 -68.78466797 93.14135742 C-68.77614942 90.21779181 -68.80495825 87.29617606 -68.83666992 84.37280273 C-68.83828198 82.50561582 -68.83770431 80.63842546 -68.8347168 78.77124023 C-68.84595078 77.90233154 -68.85718475 77.03342285 -68.86875916 76.13818359 C-68.80628717 70.67042655 -67.96356949 67.55546992 -64.33862305 63.20874023 C-60.70399511 60.01467326 -57.65454624 59.08180488 -52.8671875 59.09521484 C-51.51612663 59.09532814 -51.51612663 59.09532814 -50.13777161 59.09544373 C-49.16893539 59.10060501 -48.20009918 59.1057663 -47.2019043 59.11108398 C-45.71003853 59.11320641 -45.71003853 59.11320641 -44.18803406 59.1153717 C-41.00903322 59.12097263 -37.83010262 59.13352528 -34.65112305 59.14624023 C-32.49682719 59.15125512 -30.34253023 59.15581804 -28.18823242 59.15991211 C-22.9050053 59.17094235 -17.62181919 59.18768137 -12.33862305 59.20874023 C-12.35194672 58.58535263 -12.36527039 57.96196503 -12.3789978 57.31968689 C-12.51203552 50.81457207 -12.60235688 44.3098454 -12.66821289 37.80371094 C-12.69833271 35.37776993 -12.73923769 32.95193736 -12.79125977 30.52636719 C-12.86428137 27.03350032 -12.89812902 23.54207651 -12.92456055 20.04858398 C-12.95552826 18.96915024 -12.98649597 17.88971649 -13.0184021 16.77757263 C-13.0211938 10.49094781 -12.32707405 6.94704761 -7.82583618 2.42140198 C-5.17894333 0.26314663 -3.33910479 0.06696773 0 0 Z " fill="#4A98F8" transform="translate(778.338623046875,719.791259765625)"/>
<path d="M0 0 C29.04 0 58.08 0 88 0 C88.12375 10.27125 88.2475 20.5425 88.375 31.125 C88.45693604 35.94569092 88.45693604 35.94569092 88.54052734 40.86376953 C88.55807529 43.4534353 88.57335884 46.04311782 88.5859375 48.6328125 C88.6166333 49.94306396 88.6473291 51.25331543 88.67895508 52.60327148 C88.68633191 65.80534608 84.33979323 77.40296671 75 87 C69.91356333 91.63824656 64.36321822 94.48670016 58 97 C57.25363281 97.35835937 56.50726563 97.71671875 55.73828125 98.0859375 C46.99771337 101.00361637 35.69617981 99.78549907 27.36328125 96.20703125 C23.73482465 94.35381953 20.32846609 92.34905538 17 90 C16.154375 89.443125 15.30875 88.88625 14.4375 88.3125 C7.8410631 82.05434191 4.26251739 75.02641805 1.7265625 66.37109375 C1.22320503 64.0669014 1.22320503 64.0669014 0 63 C-0.0940067 61.03630847 -0.11743381 59.06920801 -0.11352539 57.10327148 C-0.11340454 55.82432007 -0.11328369 54.54536865 -0.11315918 53.22766113 C-0.10812271 51.85880485 -0.10295607 50.48994904 -0.09765625 49.12109375 C-0.09664917 47.88363403 -0.09564209 46.64617432 -0.09460449 45.37121582 C-0.08935285 40.72663452 -0.07539175 36.08206638 -0.0625 31.4375 C-0.041875 21.063125 -0.02125 10.68875 0 0 Z " fill="#FBFCFD" transform="translate(395,598)"/>
<path d="M0 0 C-1.485 1.485 -1.485 1.485 -3 3 C-3.33 2.34 -3.66 1.68 -4 1 C-8.70234485 1.63336937 -8.70234485 1.63336937 -13.35940486 2.52648968 C-16.30989641 3.05557048 -19.06415326 3.13113114 -22.06202221 3.1386652 C-23.28733093 3.14413964 -24.51263966 3.14961409 -25.77507895 3.15525442 C-27.13213163 3.15633067 -28.48918438 3.15731536 -29.84623718 3.15821838 C-31.29099232 3.16278595 -32.73574614 3.16778626 -34.18049842 3.17318195 C-38.15370306 3.18676227 -42.12689913 3.19418196 -46.1001209 3.20060861 C-50.38847883 3.20861835 -54.67681901 3.22231904 -58.96516418 3.23532104 C-67.38678584 3.25996085 -75.80841196 3.27935674 -84.23005071 3.29707379 C-94.10440379 3.31807468 -103.97874007 3.34452677 -113.85307906 3.37124526 C-131.56049126 3.41899723 -149.26791162 3.46219526 -166.9753418 3.50268555 C-183.99325313 3.54160648 -201.01115549 3.58301743 -218.02905273 3.62768555 C-219.06719168 3.63040982 -220.10533063 3.63313409 -221.17492833 3.63594092 C-225.35337108 3.64691252 -229.5318138 3.65789157 -233.7102565 3.66888306 C-252.0807125 3.71713994 -270.451174 3.76324455 -288.82163623 3.80905947 C-291.73548256 3.81634069 -294.64932877 3.82366636 -297.56317496 3.83100247 C-323.51776012 3.89623786 -349.47234763 3.95482356 -375.4269833 3.99592334 C-377.15191797 3.99865631 -378.87685259 4.00142277 -380.60178715 4.00422162 C-391.67082955 4.02213249 -402.73986478 4.03585895 -413.80891955 4.04301441 C-416.91582603 4.04509339 -420.02272666 4.04841589 -423.12963045 4.05299294 C-447.15390345 4.0869447 -471.16566717 3.82987051 -495.17893618 3.03904349 C-499.21788585 2.82165689 -499.21788585 2.82165689 -503 4 C-504.43285311 4.08813671 -505.86979584 4.11364955 -507.30534363 4.10743046 C-508.21494119 4.10593811 -509.12453875 4.10444576 -510.06169987 4.10290819 C-511.06767436 4.0961044 -512.07364885 4.08930061 -513.11010742 4.08229065 C-514.70602423 4.07744696 -514.70602423 4.07744696 -516.33418179 4.07250541 C-519.92464619 4.06037511 -523.51503615 4.04101185 -527.10546875 4.02172852 C-529.6712528 4.01158953 -532.23703863 4.00189545 -534.80282593 3.99261475 C-540.34668702 3.97186574 -545.89052213 3.94742716 -551.43435669 3.92053413 C-559.48687944 3.88149122 -567.53941801 3.84816442 -575.59197176 3.81623887 C-588.70488713 3.76410852 -601.81777965 3.70757326 -614.93066406 3.64819336 C-627.58625515 3.5908956 -640.24185136 3.53524593 -652.89746094 3.48217773 C-653.67225261 3.47892802 -654.44704427 3.4756783 -655.24531448 3.4723301 C-662.98414325 3.4399037 -670.72297312 3.40774253 -678.46180314 3.37561565 C-681.49901308 3.3630043 -684.53622296 3.35037933 -687.5734328 3.33774538 C-689.07560247 3.33149717 -690.57777216 3.3252533 -692.07994187 3.31901383 C-701.53726579 3.27969796 -710.99458265 3.23905379 -720.45189381 3.19677943 C-724.57950505 3.17834168 -728.70711844 3.16041361 -732.83473206 3.14251614 C-738.0159228 3.12002547 -743.1971024 3.09592668 -748.37828064 3.07073307 C-759.01686106 3.02145043 -769.6539341 2.98690049 -780.29248047 3.05465698 C-781.54040894 3.06118625 -781.54040894 3.06118625 -782.81354809 3.06784743 C-786.49859486 3.08718482 -790.18302984 3.11453307 -793.86781311 3.16281223 C-795.07537766 3.17059161 -796.2829422 3.17837099 -797.52709961 3.18638611 C-799.06145912 3.20452063 -799.06145912 3.20452063 -800.6268158 3.22302151 C-803 3 -803 3 -805 1 C-729.67665106 0.90461345 -654.3533021 0.80924723 -579.029953 0.71398926 C-577.91523561 0.71257952 -576.80051822 0.71116978 -575.65202151 0.70971733 C-551.42651142 0.67908044 -527.20100132 0.6484472 -502.97549121 0.61781773 C-491.09539583 0.60279714 -479.21530046 0.58777573 -467.33520508 0.57275391 C-466.15298953 0.57125906 -464.97077399 0.56976422 -463.75273373 0.56822408 C-425.43016774 0.51976705 -387.10760182 0.47125667 -348.78503593 0.42271865 C-309.40532515 0.37284197 -270.0256143 0.32301907 -230.64590336 0.2732639 C-225.08445343 0.26623714 -219.5230035 0.25920976 -213.96155357 0.25218201 C-212.86697489 0.25079886 -211.77239621 0.24941571 -210.64464848 0.24799064 C-193.02129901 0.22571954 -175.39794961 0.20339169 -157.77460023 0.18104266 C-140.05941465 0.15857837 -122.34422899 0.13617379 -104.62904326 0.11383021 C-94.10273774 0.10055191 -83.57643228 0.08722779 -73.0501269 0.07383808 C-66.01699456 0.06489628 -58.98386214 0.05601421 -51.95072965 0.04718045 C-47.94438728 0.0421467 -43.93804495 0.03708721 -39.93170271 0.03195482 C-36.28120995 0.02727882 -32.63071709 0.02267954 -28.98022416 0.0181394 C-27.06069559 0.01573286 -25.14116711 0.0132463 -23.22163865 0.01075572 C-15.4810883 0.00122749 -7.74055597 -0.00180643 0 0 Z " fill="#DBDBDB" transform="translate(1031,1147)"/>
<path d="M0 0 C0.66 0 1.32 0 2 0 C2.93880769 10.49452879 3.1109563 20.96945819 3.125 31.5 C3.12951172 32.79953613 3.13402344 34.09907227 3.13867188 35.43798828 C3.12255866 45.83504146 3.12255866 45.83504146 2.4609375 50.40234375 C1.95140525 54.37928613 2.17622348 58.09188578 2.5 62.0625 C3.34402001 74.51924236 2.75697571 86.97847374 2.31835938 99.44165039 C2.2912085 100.27376541 2.26405762 101.10588043 2.23608398 101.96321106 C2.18460396 103.52850104 2.12786997 105.09363134 2.06469727 106.65849304 C1.9496793 110.19691231 2.01434845 113.54296814 2.51757812 117.05078125 C3.01392228 121.11397106 2.8870044 124.7215404 2.5625 128.796875 C1.88904324 138.28929541 1.91986567 147.73881838 2 157.25 C2.02671851 160.50520467 2.04657144 163.7603518 2.0625 167.015625 C2.07494751 168.11091522 2.07494751 168.11091522 2.08764648 169.22833252 C2.1055933 172.9528438 1.89759757 176.37957199 1 180 C1.66 180 2.32 180 3 180 C2.92935333 180.66141495 2.85870667 181.3228299 2.78591919 182.00428772 C2.10414143 188.834169 1.85302486 195.57264021 1.8671875 202.43359375 C1.86623077 203.47395279 1.86527405 204.51431183 1.86428833 205.5861969 C1.86361321 207.76343853 1.86542043 209.94068225 1.86962891 212.11791992 C1.87502509 215.45300765 1.86964171 218.78796305 1.86328125 222.12304688 C1.86394141 224.24739613 1.86522127 226.3717453 1.8671875 228.49609375 C1.86516327 229.49088242 1.86313904 230.48567108 1.86105347 231.51060486 C1.86578171 232.8983889 1.86578171 232.8983889 1.87060547 234.31420898 C1.87140106 235.12486313 1.87219666 235.93551727 1.87301636 236.77073669 C1.99869292 238.97705348 2.44495793 240.86816234 3 243 C3.09444115 245.43602611 3.1299002 247.87464883 3.125 250.3125 C3.12886719 252.22482422 3.12886719 252.22482422 3.1328125 254.17578125 C3.00485705 257.86014544 2.52948433 261.35565864 2 265 C1.91272197 267.24869266 1.86971742 269.49962043 1.875 271.75 C1.87242188 272.85859375 1.86984375 273.9671875 1.8671875 275.109375 C1.87168008 278.06896074 1.87168008 278.06896074 3 281 C2.67 281.66 2.34 282.32 2 283 C1.89954135 285.44941818 1.85911523 287.86340949 1.875 290.3125 C1.87693359 291.02873535 1.87886719 291.7449707 1.88085938 292.48291016 C1.92511589 298.02358013 2.29401779 303.50326196 2.7734375 309.0234375 C3.56210017 319.38483331 3.56210017 319.38483331 2.49978638 324.32723999 C2.00931005 326.95021166 1.8731173 329.31836864 1.87060547 331.98291016 C1.86745331 332.94806549 1.86430115 333.91322083 1.86105347 334.90762329 C1.8630777 335.94099823 1.86510193 336.97437317 1.8671875 338.0390625 C1.86623077 339.1157016 1.86527405 340.1923407 1.86428833 341.30160522 C1.86360846 343.57948871 1.86544931 345.85737415 1.86962891 348.13525391 C1.87494847 351.59151669 1.8696936 355.04764766 1.86328125 358.50390625 C1.86394268 360.72395862 1.86522517 362.9440109 1.8671875 365.1640625 C1.86516327 366.18529205 1.86313904 367.20652161 1.86105347 368.25869751 C1.87934934 373.97046025 2.20546962 379.5545243 2.77316284 385.23602295 C3.17132314 390.08754694 3.14248553 394.93570669 3.1328125 399.80078125 C3.13376923 400.88078903 3.13472595 401.96079681 3.13571167 403.0735321 C3.13638719 405.33653828 3.13457712 407.59954646 3.13037109 409.86254883 C3.12498752 413.32051931 3.13035094 416.77836148 3.13671875 420.23632812 C3.13605837 422.44531279 3.13477804 424.65429737 3.1328125 426.86328125 C3.13483673 427.8914949 3.13686096 428.91970856 3.13894653 429.9790802 C3.12321238 434.79632026 2.81927777 439.24418111 2 444 C2.495 445.485 2.495 445.485 3 447 C3.09204729 448.58205871 3.12790786 450.16770791 3.12939453 451.75244141 C3.13412277 453.2013829 3.13412277 453.2013829 3.13894653 454.67959595 C3.1369223 455.72634491 3.13489807 456.77309387 3.1328125 457.8515625 C3.13376923 458.9389975 3.13472595 460.0264325 3.13571167 461.14682007 C3.13639326 463.45855771 3.13454043 465.77029726 3.13037109 468.08203125 C3.12509468 471.56254593 3.13027886 475.04292724 3.13671875 478.5234375 C3.13880744 489.10950551 3.09737811 499.65190626 2.26150513 510.21035767 C2.14002825 511.80466173 2.06453131 513.40237746 2 515 C2.33 515.33 2.66 515.66 3 516 C3.1464513 519.14870299 3.00766361 521.95827592 2.4375 525.0625 C1.98023251 528.13272457 2.38751229 529.99041446 3 533 C3.087119 534.6758631 3.12783245 536.35458958 3.12939453 538.03271484 C3.13251144 539.01438629 3.13562836 539.99605774 3.13883972 541.00747681 C3.13685074 542.06461884 3.13486176 543.12176086 3.1328125 544.2109375 C3.13408646 545.32004486 3.13536041 546.42915222 3.13667297 547.5718689 C3.1384777 551.17293927 3.13213099 554.77393707 3.125 558.375 C3.12444611 559.59175415 3.12389221 560.8085083 3.12332153 562.06213379 C3.11481338 577.90090967 2.975403 593.71616436 2.26806641 609.54052734 C2.21956543 610.65637207 2.17106445 611.7722168 2.12109375 612.921875 C2.05039673 614.33871582 2.05039673 614.33871582 1.97827148 615.78417969 C1.8384889 618.04232921 1.8384889 618.04232921 3 620 C3.09704107 621.87692079 3.1307628 623.75729213 3.1328125 625.63671875 C3.13410156 626.77173828 3.13539062 627.90675781 3.13671875 629.07617188 C3.13285156 630.26791016 3.12898438 631.45964844 3.125 632.6875 C3.13080078 634.44610352 3.13080078 634.44610352 3.13671875 636.24023438 C3.13027281 641.94811525 2.91735948 647.37145539 2 653 C2.32550502 654.66821323 2.65846063 656.33499557 3 658 C2.69169075 660.00401011 2.36270588 662.00511766 2 664 C2.33 664.33 2.66 664.66 3 665 C2.93432482 667.70163821 2.80628494 670.36815255 2.625 673.0625 C2.58117188 673.80177734 2.53734375 674.54105469 2.4921875 675.30273438 C2.18156737 680.23382889 1.6558932 685.10303469 1 690 C1.66 690.33 2.32 690.66 3 691 C2.73896484 692.27037109 2.73896484 692.27037109 2.47265625 693.56640625 C1.97333431 697.19371189 2.12754604 700.2907577 2.4375 703.9375 C3.0689395 712.62129662 3.11797505 721.29838832 3.125 730 C3.12740692 730.67344452 3.12981384 731.34688904 3.1322937 732.04074097 C3.17828226 747.07945611 3.17828226 747.07945611 2 754 C1.34 754.33 0.68 754.66 0 755 C0 505.85 0 256.7 0 0 Z " fill="#EBEBEB" transform="translate(1163,248)"/>
<path d="M0 0 C0.66 0.99 1.32 1.98 2 3 C1.67 3.33 1.34 3.66 1 4 C0.89586206 6.84950596 0.85794752 9.67501342 0.8613348 12.52519321 C0.85849258 13.4346921 0.85565036 14.34419099 0.85272202 15.28125045 C0.84431285 18.36911418 0.84310197 21.45694071 0.84178162 24.54481506 C0.83722049 26.76482163 0.83222114 28.98482734 0.82681805 31.20483202 C0.81317631 37.33661749 0.80580122 43.46839738 0.79939139 49.6001941 C0.7922319 55.52391703 0.7804053 61.44762933 0.76867336 67.3713447 C0.74482584 79.49460358 0.72563726 91.61786571 0.70907402 103.74113655 C0.69265148 115.7503612 0.67417653 127.75957978 0.65294075 139.76879692 C0.65162314 140.51458275 0.65030554 141.26036858 0.648948 142.02875397 C0.64224622 145.81598923 0.63550758 149.60322442 0.62875474 153.39045959 C0.58095012 180.23824648 0.53777707 207.08603902 0.49731445 233.93383789 C0.45798702 260.02140718 0.41656996 286.10897178 0.37231445 312.1965332 C0.37095192 313.00020376 0.36958939 313.80387431 0.36818558 314.63189852 C0.35450059 322.70244812 0.34077301 330.77299766 0.32701423 338.84354714 C0.29898523 355.28521896 0.27124051 371.72689125 0.2436676 388.16856384 C0.2423994 388.92457959 0.2411312 389.68059534 0.23982458 390.45952066 C0.15512197 440.97300618 0.07706775 491.48650232 0 542 C-0.33 542 -0.66 542 -1 542 C-1.01711063 490.54629592 -1.03303225 439.09259163 -1.04234314 387.6388855 C-1.0424812 386.87790334 -1.04261925 386.11692118 -1.04276149 385.33287896 C-1.04575409 368.79648757 -1.04852431 352.26009616 -1.05106533 335.7237047 C-1.05231272 327.61479401 -1.05360926 319.50588333 -1.05493164 311.39697266 C-1.0550624 310.59001912 -1.05519316 309.78306558 -1.05532788 308.95165891 C-1.05959267 282.77466022 -1.06710654 256.59766369 -1.07629722 230.4206663 C-1.08572117 203.53055627 -1.09188343 176.64044743 -1.09391499 149.75033577 C-1.09420316 145.95623657 -1.0945288 142.16213737 -1.09487724 138.36803818 C-1.09494467 137.62127176 -1.09501209 136.87450535 -1.09508156 136.10510965 C-1.09626535 124.0623042 -1.10090901 112.01950242 -1.10683203 99.97669847 C-1.11270683 87.88290339 -1.11497111 75.78911196 -1.11350138 63.6953155 C-1.11280562 57.13725133 -1.11387674 50.57919589 -1.11920547 44.02113342 C-1.1240408 38.02688642 -1.12433776 32.03265762 -1.12089889 26.03840981 C-1.12047333 23.86073012 -1.12176795 21.68304933 -1.12488318 19.50537182 C-1.12884976 16.56338367 -1.12676171 13.62146272 -1.12304783 10.67947578 C-1.12698835 9.38783702 -1.12698835 9.38783702 -1.13100848 8.07010454 C-1.1141458 2.2282916 -1.1141458 2.2282916 0 0 Z " fill="#0B60E9" transform="translate(259,354)"/>
<path d="M0 0 C-1.485 1.485 -1.485 1.485 -3 3 C-3.33 2.34 -3.66 1.68 -4 1 C-8.70018971 1.63245833 -8.70018971 1.63245833 -13.35429448 2.52844185 C-16.33719746 3.0601005 -19.11343726 3.11707784 -22.14378834 3.10743046 C-23.38686561 3.10593811 -24.62994289 3.10444576 -25.91068918 3.10290819 C-27.28728709 3.09612635 -28.66388454 3.08925046 -30.04048157 3.08229065 C-31.50497514 3.0785959 -32.9694699 3.07534687 -34.43396538 3.07250541 C-38.4588489 3.06340497 -42.48368721 3.04797472 -46.50854647 3.03152263 C-50.84863874 3.01488683 -55.18874598 3.00410459 -59.52885437 2.99261475 C-67.04858499 2.97190456 -74.5682962 2.9474781 -82.08800697 2.92053413 C-92.96027348 2.88158295 -103.83255148 2.84822617 -114.70484044 2.81623887 C-132.3440121 2.76419066 -149.9831662 2.7076122 -167.62231445 2.64819336 C-184.75804969 2.59047999 -201.89378965 2.53489488 -219.02954102 2.48217773 C-220.08562383 2.47892802 -221.14170665 2.4756783 -222.22979198 2.4723301 C-227.52779992 2.45604052 -232.82580799 2.43979283 -238.12381613 2.42356598 C-282.08256573 2.288874 -326.04128939 2.14683347 -370 2 C-370 1.67 -370 1.34 -370 1 C-324.74159353 0.87239186 -279.48318652 0.74497616 -234.22477879 0.61781773 C-228.87893781 0.60279784 -223.53309683 0.58777637 -218.18725586 0.57275391 C-216.5908967 0.56826798 -216.5908967 0.56826798 -214.96228787 0.56369144 C-197.74101019 0.51529421 -180.51973287 0.46676827 -163.29845569 0.41819459 C-145.62160932 0.36833882 -127.94476255 0.31862179 -110.26791543 0.26903296 C-99.36455718 0.23844143 -88.46119924 0.20774229 -77.55784168 0.17690456 C-70.07619562 0.15575476 -62.59454918 0.13473998 -55.11290244 0.11383021 C-50.79949911 0.10177112 -46.48609597 0.08965363 -42.17269325 0.07737541 C-38.21642602 0.06611511 -34.26015834 0.05502602 -30.30389025 0.0440678 C-28.87971128 0.04009378 -27.45553247 0.03605925 -26.03135387 0.03195482 C-17.35420896 0.00698898 -8.67718103 -0.00500847 0 0 Z " fill="#E6E6E6" transform="translate(1031,1147)"/>
<path d="M0 0 C-0.99 0.8971875 -0.99 0.8971875 -2 1.8125 C-4.3373846 3.87501834 -4.3373846 3.87501834 -4 7 C-4 7.33 -4 7.66 -4 8 C-10.95432222 10.04538889 -17.77875787 10.58169634 -25 11 C-22.6946097 8.36739301 -20.64991896 7.2998122 -17.375 6.125 C-12.91091012 4.44524729 -8.96132471 2.36263471 -4.91015625 -0.14453125 C-3 -1 -3 -1 0 0 Z " fill="#1C79F1" transform="translate(491,724)"/>
<path d="M0 0 C0.66 0.99 1.32 1.98 2 3 C1.67 3.33 1.34 3.66 1 4 C0.87593185 6.20794411 0.82197722 8.41984486 0.79467773 10.63110352 C0.78477814 11.32375305 0.77487854 12.01640259 0.76467896 12.7300415 C0.7329797 15.02962779 0.70827349 17.32923477 0.68359375 19.62890625 C0.66303148 21.21932018 0.64203521 22.80972855 0.62062073 24.40013123 C0.56532491 28.59389763 0.5159489 32.78771395 0.46777344 36.98156738 C0.41761309 41.25793928 0.36189856 45.53423834 0.30664062 49.81054688 C0.19896726 58.20696973 0.09754284 66.60345338 0 75 C-0.33 75 -0.66 75 -1 75 C-1.02313912 65.51652748 -1.04092312 56.03306464 -1.05181217 46.54957008 C-1.05703755 42.14631785 -1.06412897 37.74308489 -1.07543945 33.33984375 C-1.08628054 29.09290756 -1.09227944 24.84598994 -1.09487724 20.59904099 C-1.09672928 18.97627851 -1.10034568 17.35351708 -1.10573006 15.73076248 C-1.11295668 13.46322661 -1.11399025 11.19576813 -1.11352539 8.92822266 C-1.115746 7.63582672 -1.11796661 6.34343079 -1.12025452 5.01187134 C-1 2 -1 2 0 0 Z " fill="#0B62EA" transform="translate(259,354)"/>
<path d="M0 0 C-8.04744526 5.63868613 -8.04744526 5.63868613 -12.625 7.375 C-16.63405581 9.30528613 -18.65491018 11.64904807 -21.421875 15.0625 C-22.87070469 16.8412612 -24.27679977 18.4850987 -26 20 C-26.66 20 -27.32 20 -28 20 C-28.33 21.32 -28.66 22.64 -29 24 C-29.66 23.34 -30.32 22.68 -31 22 C-26.242748 15.29787144 -9.79507621 -4.8975381 0 0 Z " fill="#1C74ED" transform="translate(421,463)"/>
<path d="M0 0 C0.66 0.33 1.32 0.66 2 1 C1.67 1.66 1.34 2.32 1 3 C1.66 3.66 2.32 4.32 3 5 C1.0852312 5.36428777 -0.83192293 5.71605306 -2.75 6.0625 C-3.81734375 6.25972656 -4.8846875 6.45695313 -5.984375 6.66015625 C-8.74771905 6.97156937 -10.40946617 6.8991416 -13 6 C-12.39671875 5.73445312 -11.7934375 5.46890625 -11.171875 5.1953125 C-10.37265625 4.84210937 -9.5734375 4.48890625 -8.75 4.125 C-7.96109375 3.77695312 -7.1721875 3.42890625 -6.359375 3.0703125 C-4.00201947 2.03750349 -4.00201947 2.03750349 -1.828125 0.8046875 C-1.22484375 0.53914062 -0.6215625 0.27359375 0 0 Z " fill="#327CEC" transform="translate(479,728)"/>
<path d="M0 0 C0.33 0.66 0.66 1.32 1 2 C0.34 1.67 -0.32 1.34 -1 1 C-0.67 0.67 -0.34 0.34 0 0 Z M-3 2 C-2.34 2.33 -1.68 2.66 -1 3 C-2.39113995 4.27596932 -3.78814413 5.54554648 -5.1875 6.8125 C-5.96480469 7.52019531 -6.74210937 8.22789063 -7.54296875 8.95703125 C-9.94067853 10.95067547 -12.21715014 12.59220536 -15 14 C-15.66 13.67 -16.32 13.34 -17 13 C-16.15695312 12.37351562 -15.31390625 11.74703125 -14.4453125 11.1015625 C-13.33847821 10.27612676 -12.23171086 9.45060124 -11.125 8.625 C-10.56941406 8.2125 -10.01382812 7.8 -9.44140625 7.375 C-7.1649876 5.6745427 -5.0120881 4.0120881 -3 2 Z M-17 14 C-17 14.66 -17 15.32 -17 16 C-18.65 16.66 -20.3 17.32 -22 18 C-21.67 17.01 -21.34 16.02 -21 15 C-19 14 -19 14 -17 14 Z " fill="#DDDDDC" transform="translate(1109,1110)"/>
<path d="M0 0 C0.66 0.99 1.32 1.98 2 3 C1.125 5.6875 1.125 5.6875 0 8 C-0.66 8 -1.32 8 -2 8 C-2.2475 8.969375 -2.495 9.93875 -2.75 10.9375 C-3.1625 11.948125 -3.575 12.95875 -4 14 C-5.32 14.33 -6.64 14.66 -8 15 C-5.36 10.05 -2.72 5.1 0 0 Z " fill="#2D7EF2" transform="translate(516,689)"/>
<path d="M0 0 C0.66 0.33 1.32 0.66 2 1 C1.67 2.98 1.34 4.96 1 7 C0.34 7 -0.32 7 -1 7 C-1.33 8.65 -1.66 10.3 -2 12 C-2.66 12 -3.32 12 -4 12 C-2.66666667 8 -1.33333333 4 0 0 Z " fill="#2275EF" transform="translate(555,859)"/>
<path d="M0 0 C4.95 0.99 4.95 0.99 10 2 C9.67 2.66 9.34 3.32 9 4 C6.36 3.67 3.72 3.34 1 3 C0.67 2.01 0.34 1.02 0 0 Z " fill="#116BE9" transform="translate(502,351)"/>
<path d="M0 0 C2.1640625 0.0234375 2.1640625 0.0234375 4.625 0.375 C5.85089844 0.54128906 5.85089844 0.54128906 7.1015625 0.7109375 C7.72804688 0.80632812 8.35453125 0.90171875 9 1 C8.34 1.66 7.68 2.32 7 3 C4.8359375 2.9765625 4.8359375 2.9765625 2.375 2.625 C1.55773437 2.51414062 0.74046875 2.40328125 -0.1015625 2.2890625 C-0.72804688 2.19367188 -1.35453125 2.09828125 -2 2 C-1.34 1.34 -0.68 0.68 0 0 Z " fill="#1E74EE" transform="translate(806,351)"/>
<path d="M0 0 C0.66 0.33 1.32 0.66 2 1 C1.34 3.31 0.68 5.62 0 8 C-0.99 8 -1.98 8 -3 8 C-1.125 1.125 -1.125 1.125 0 0 Z " fill="#2076EF" transform="translate(751,395)"/>
<path d="M0 0 C0 0.66 0 1.32 0 2 C-3.67410785 3.17571451 -7.16929183 3.07366746 -11 3 C-7.68381684 -0.31618316 -4.50821267 -1.6697084 0 0 Z " fill="#2D80F1" transform="translate(791,353)"/>
<path d="M0 0 C0.66 0.33 1.32 0.66 2 1 C-0.6598561 4.44216672 -3.90288286 4.99504674 -8 6 C-8.33 5.34 -8.66 4.68 -9 4 C-7.54618103 3.30300448 -6.08677047 2.61766134 -4.625 1.9375 C-3.40683594 1.36322266 -3.40683594 1.36322266 -2.1640625 0.77734375 C-1.44992187 0.52082031 -0.73578125 0.26429687 0 0 Z " fill="#E0DFDF" transform="translate(1080,1130)"/>
<path d="M0 0 C0.33 0.99 0.66 1.98 1 3 C1.66 3 2.32 3 3 3 C3.33 5.64 3.66 8.28 4 11 C3.34 11 2.68 11 2 11 C0.80712589 7.12315913 0 4.08378077 0 0 Z " fill="#4586EA" transform="translate(520,491)"/>
<path d="M0 0 C0.33 1.32 0.66 2.64 1 4 C-0.98 4.99 -0.98 4.99 -3 6 C-3 6.66 -3 7.32 -3 8 C-3.99 7.67 -4.98 7.34 -6 7 C-4.02 4.69 -2.04 2.38 0 0 Z " fill="#1B70E9" transform="translate(767,365)"/>
<path d="M0 0 C4.95 1.98 4.95 1.98 10 4 C10 4.33 10 4.66 10 5 C3.9453125 4.609375 3.9453125 4.609375 2 4 C1.34 2.68 0.68 1.36 0 0 Z " fill="#1574EF" transform="translate(816,353)"/>
<path d="M0 0 C0.66 1.32 1.32 2.64 2 4 C1.67 4.99 1.34 5.98 1 7 C0.34 7 -0.32 7 -1 7 C-1 7.66 -1 8.32 -1 9 C-1.66 9 -2.32 9 -3 9 C-2.01 6.03 -1.02 3.06 0 0 Z " fill="#277AEE" transform="translate(566,833)"/>
<path d="M0 0 C0.89332031 0.12761719 1.78664063 0.25523437 2.70703125 0.38671875 C3.60808594 0.50660156 4.50914062 0.62648438 5.4375 0.75 C6.12457031 0.85699219 6.81164062 0.96398437 7.51953125 1.07421875 C7.51953125 1.40421875 7.51953125 1.73421875 7.51953125 2.07421875 C1.08453125 2.56921875 1.08453125 2.56921875 -5.48046875 3.07421875 C-2.48046875 0.07421875 -2.48046875 0.07421875 0 0 Z " fill="#71A3F6" transform="translate(471.48046875,731.92578125)"/>
<path d="M0 0 C0.66 0.99 1.32 1.98 2 3 C1.3125 5.625 1.3125 5.625 0 8 C-0.99 8.33 -1.98 8.66 -3 9 C-2.01 6.03 -1.02 3.06 0 0 Z " fill="#307DEE" transform="translate(731,440)"/>
<path d="M0 0 C0.66 0.99 1.32 1.98 2 3 C1.67 3.33 1.34 3.66 1 4 C0.76518307 6.18292774 0.58636677 8.37203174 0.4375 10.5625 C0.35371094 11.76003906 0.26992188 12.95757812 0.18359375 14.19140625 C0.12300781 15.11824219 0.06242187 16.04507812 0 17 C-0.33 17 -0.66 17 -1 17 C-1.02691685 14.54159395 -1.04679802 12.08348118 -1.0625 9.625 C-1.07087891 8.92632812 -1.07925781 8.22765625 -1.08789062 7.5078125 C-1.11328125 2.2265625 -1.11328125 2.2265625 0 0 Z " fill="#2978EC" transform="translate(259,354)"/>
<path d="M0 0 C2.97 0.33 5.94 0.66 9 1 C8.34 1.66 7.68 2.32 7 3 C3.375 2.625 3.375 2.625 0 2 C0 1.34 0 0.68 0 0 Z " fill="#E2E2E2" transform="translate(214,1145)"/>
<path d="M0 0 C0.66 0.99 1.32 1.98 2 3 C1.01 4.98 0.02 6.96 -1 9 C-1.66 9 -2.32 9 -3 9 C-2.01 6.03 -1.02 3.06 0 0 Z " fill="#CEE3FA" transform="translate(695,781)"/>
<path d="M0 0 C0.66 0.33 1.32 0.66 2 1 C1.1875 4.4375 1.1875 4.4375 0 8 C-0.99 8.33 -1.98 8.66 -3 9 C-2.01 6.03 -1.02 3.06 0 0 Z " fill="#C5DEFA" transform="translate(702,764)"/>
<path d="M0 0 C0.66 0 1.32 0 2 0 C0.25 5.75 0.25 5.75 -2 8 C-3 5 -3 5 -1.6875 2.3125 C-1.130625 1.549375 -0.57375 0.78625 0 0 Z " fill="#E8F0FB" transform="translate(478,668)"/>
<path d="M0 0 C0.33 0.66 0.66 1.32 1 2 C-1.99531539 2.99843846 -3.17255732 3.00732761 -6.1875 2.5625 C-7.445625 2.376875 -8.70375 2.19125 -10 2 C-6.5980513 -0.09350689 -3.94727588 -0.17942163 0 0 Z " fill="#2C79E6" transform="translate(431,460)"/>
<path d="M0 0 C0.66 0.66 1.32 1.32 2 2 C1.625 4.625 1.625 4.625 1 7 C0.01 7 -0.98 7 -2 7 C-1.34 4.69 -0.68 2.38 0 0 Z " fill="#287AEE" transform="translate(747,403)"/>
<path d="M0 0 C3.82097239 0.53069061 6.06171403 1.49701566 9 4 C6 5 6 5 2.8125 3.5625 C1.884375 3.046875 0.95625 2.53125 0 2 C0 1.34 0 0.68 0 0 Z " fill="#1370EE" transform="translate(544,366)"/>
<path d="M0 0 C0.66 0 1.32 0 2 0 C1.67 2.31 1.34 4.62 1 7 C0.01 7 -0.98 7 -2 7 C-1.34 4.69 -0.68 2.38 0 0 Z " fill="#D6E7FA" transform="translate(761,621)"/>
</svg>
